<?xml version="1.0" encoding="UTF-8"?>
<svg id="Layer_1" xmlns="http://www.w3.org/2000/svg" width="298.96" height="282.29" version="1.1" viewBox="0 0 298.96 282.29">
  <!-- Generator: Adobe Illustrator 30.3.0, SVG Export Plug-In . SVG Version: 2.1.3 Build 182)  -->
  <path d="M87.35,18.46l122.38-.13c35.79,2.26,61.3,29.03,63.12,64.69-1.19,38,1.6,76.97.02,114.85-1.42,34.13-25.33,63.19-60.49,65.41-23.72,1.5-49.03.08-72.85-.01-17.43-.07-36.04,1.11-53.43.01-32.21-2.04-58.77-29.03-60.47-61.24l-.02-122.48c2.56-33.06,28.67-58.78,61.75-61.11ZM88.11,38.3c-23.43,1.96-41.26,20.03-42.67,43.55v117.92c1.11,24.25,19.62,42.43,43.7,44.05,41.31-.27,82.68.56,123.95-.43,21-2.93,37-19.14,39.49-40.25,1.05-38.19,1.37-78.2.43-118.22-.62-26.34-18.07-45.21-44.81-46.76l-120.09.13Z" fill="#917a3c"/>
  <path d="M144.96,77.97c50.84-3.53,84.68,52.95,57.85,96.38-24,38.85-79.19,40.74-105.39,3.2-28.2-40.39-1.24-96.2,47.54-99.59ZM143.81,97.81c-19.04,1.83-35.01,18.47-37.64,37.14-5.51,39.15,40.16,65.89,70.71,39.81,32.76-27.97,10.45-81.13-33.07-76.95Z" fill="#917a3c"/>
  <path d="M204.31,82.69c-13.02-13.02,5.52-33.48,19.71-21.43,14.81,12.58-5.79,35.35-19.71,21.43Z" fill="#917a3c"/>
</svg>